<svg xmlns="http://www.w3.org/2000/svg" width="390" height="780" viewBox="0 0 390 780">
  <defs>
    <linearGradient id="waHeader" x1="0" y1="0" x2="0" y2="1">
      <stop offset="0%" stop-color="#075E54"/>
      <stop offset="100%" stop-color="#128C7E"/>
    </linearGradient>
  </defs>
  <rect width="390" height="780" fill="#0b141a"/>
  <rect x="0" y="0" width="390" height="88" fill="url(#waHeader)"/>
  <circle cx="42" cy="44" r="18" fill="#25D366" opacity="0.9"/>
  <text x="72" y="40" font-family="Segoe UI, Arial, sans-serif" font-size="15" font-weight="600" fill="#fff">Parisio · Business</text>
  <text x="72" y="58" font-family="Segoe UI, Arial, sans-serif" font-size="11" fill="#d9fdd3">WhatsApp Business</text>

  <rect x="16" y="108" width="358" height="44" rx="10" fill="#1f2c34"/>
  <text x="32" y="135" font-family="Segoe UI, Arial, sans-serif" font-size="12" fill="#8696a0">= Cerca o inizia nuova chat</text>

  <text x="24" y="178" font-family="Segoe UI, Arial, sans-serif" font-size="11" font-weight="700" fill="#25D366" letter-spacing="1">ETICHETTE CLIENTI</text>
  <rect x="16" y="190" width="88" height="28" rx="14" fill="#1f2c34" stroke="#25D366" stroke-width="1"/>
  <text x="32" y="208" font-family="Segoe UI, Arial, sans-serif" font-size="11" fill="#e9edef">Nuovi lead</text>
  <rect x="112" y="190" width="100" height="28" rx="14" fill="#1f2c34" stroke="#53bdeb" stroke-width="1"/>
  <text x="128" y="208" font-family="Segoe UI, Arial, sans-serif" font-size="11" fill="#e9edef">Prenotazioni</text>
  <rect x="220" y="190" width="78" height="28" rx="14" fill="#1f2c34" stroke="#e9a033" stroke-width="1"/>
  <text x="236" y="208" font-family="Segoe UI, Arial, sans-serif" font-size="11" fill="#e9edef">VIP</text>
  <rect x="306" y="190" width="68" height="28" rx="14" fill="#1f2c34" stroke="#8696a0" stroke-width="1"/>
  <text x="322" y="208" font-family="Segoe UI, Arial, sans-serif" font-size="11" fill="#e9edef">Eventi</text>

  <text x="24" y="252" font-family="Segoe UI, Arial, sans-serif" font-size="11" font-weight="700" fill="#25D366" letter-spacing="1">FRASI RAPIDE</text>

  <rect x="16" y="264" width="280" height="52" rx="12" fill="#005c4b"/>
  <text x="32" y="286" font-family="Segoe UI, Arial, sans-serif" font-size="12" fill="#e9edef">Ciao! Grazie per il messaggio =O</text>
  <text x="32" y="304" font-family="Segoe UI, Arial, sans-serif" font-size="10" fill="#99beb3">/benvenuto</text>

  <rect x="16" y="328" width="300" height="52" rx="12" fill="#005c4b"/>
  <text x="32" y="350" font-family="Segoe UI, Arial, sans-serif" font-size="12" fill="#e9edef">Per prenotare: giorno, ora e persone</text>
  <text x="32" y="368" font-family="Segoe UI, Arial, sans-serif" font-size="10" fill="#99beb3">/prenotazione</text>

  <rect x="16" y="392" width="290" height="52" rx="12" fill="#005c4b"/>
  <text x="32" y="414" font-family="Segoe UI, Arial, sans-serif" font-size="12" fill="#e9edef">Ecco il menu aggiornato e le promo =G</text>
  <text x="32" y="432" font-family="Segoe UI, Arial, sans-serif" font-size="10" fill="#99beb3">/menu</text>

  <rect x="16" y="456" width="310" height="52" rx="12" fill="#005c4b"/>
  <text x="32" y="478" font-family="Segoe UI, Arial, sans-serif" font-size="12" fill="#e9edef">Ti confermo la prenotazione per stasera </text>
  <text x="32" y="496" font-family="Segoe UI, Arial, sans-serif" font-size="10" fill="#99beb3">/conferma</text>

  <rect x="200" y="530" width="174" height="44" rx="12" fill="#1f2c34"/>
  <text x="216" y="557" font-family="Segoe UI, Arial, sans-serif" font-size="12" fill="#e9edef">Vorrei prenotare per sabato</text>

  <rect x="16" y="600" width="358" height="72" rx="14" fill="#1f2c34"/>
  <text x="32" y="626" font-family="Segoe UI, Arial, sans-serif" font-size="11" font-weight="700" fill="#25D366">MESSAGGIO DI BENVENUTO</text>
  <text x="32" y="648" font-family="Segoe UI, Arial, sans-serif" font-size="11" fill="#aebac1">Inviato automaticamente ai nuovi contatti</text>
  <text x="32" y="666" font-family="Segoe UI, Arial, sans-serif" font-size="10" fill="#8696a0">"Benvenuto! Siamo felici di averti qui..."</text>

  <rect x="16" y="692" width="358" height="64" rx="14" fill="#0f1a14" stroke="#25D366" stroke-width="1"/>
  <text x="32" y="720" font-family="Segoe UI, Arial, sans-serif" font-size="12" font-weight="700" fill="#25D366"> Setup Eugenio Ciullo</text>
  <text x="32" y="740" font-family="Segoe UI, Arial, sans-serif" font-size="10" fill="#8696a0">Business · Etichette · Frasi rapide · Catalogo</text>
</svg>
