<svg xmlns="http://www.w3.org/2000/svg" viewBox="0 0 64 64" fill="none" role="img" aria-label="Eugenio Ciullo">
  <defs>
    <linearGradient id="bg" x1="0" y1="0" x2="64" y2="64" gradientUnits="userSpaceOnUse">
      <stop stop-color="#050505"/>
      <stop offset="1" stop-color="#111111"/>
    </linearGradient>
    <linearGradient id="glow" x1="44" y1="8" x2="58" y2="24" gradientUnits="userSpaceOnUse">
      <stop stop-color="#c8ff5a"/>
      <stop offset="1" stop-color="#a3ff12"/>
    </linearGradient>
  </defs>
  <rect width="64" height="64" rx="16" fill="url(#bg)"/>
  <rect x="1" y="1" width="62" height="62" rx="15" stroke="#a3ff12" stroke-opacity="0.18"/>
  <path d="M18 17h24c4.2 0 7 2.4 7 6.2 0 2.6-1.4 4.6-3.8 5.5 3.1.8 5.1 3.1 5.1 6.5 0 4.3-3.2 7.3-8.1 7.3H18V17zm8.2 8.8h11.1c1.8 0 2.9-.9 2.9-2.3 0-1.5-1.1-2.3-2.9-2.3H26.2v4.6zm0 12.1h12.1c2 0 3.2-1 3.2-2.6 0-1.6-1.2-2.6-3.2-2.6H26.2v5.2z" fill="#fff"/>
  <circle cx="49" cy="15" r="5.5" fill="url(#glow)"/>
</svg>
