<svg xmlns="http://www.w3.org/2000/svg" viewBox="0 0 64 64" fill="none" role="img" aria-label="EC Eugenio Ciullo">
  <defs>
    <linearGradient id="bg" x1="0" y1="0" x2="64" y2="64" gradientUnits="userSpaceOnUse">
      <stop stop-color="#050505"/>
      <stop offset="1" stop-color="#111111"/>
    </linearGradient>
    <linearGradient id="accent" x1="34" y1="14" x2="52" y2="50" gradientUnits="userSpaceOnUse">
      <stop stop-color="#c8ff5a"/>
      <stop offset="1" stop-color="#a3ff12"/>
    </linearGradient>
  </defs>
  <rect width="64" height="64" rx="16" fill="url(#bg)"/>
  <rect x="1" y="1" width="62" height="62" rx="15" stroke="#a3ff12" stroke-opacity="0.18"/>
  <path d="M13 17h14c3.8 0 6.2 2 6.2 5.2 0 2.2-1.2 3.8-3.2 4.5 2.4.6 4 2.5 4 5.1 0 3.5-2.7 6.2-6.8 6.2H13V17zm6.8 7.4h7.4c1.4 0 2.2-.7 2.2-1.8 0-1.1-.8-1.8-2.2-1.8h-7.4v3.6zm0 9.8h8.1c1.6 0 2.6-.8 2.6-2.1 0-1.3-1-2.1-2.6-2.1h-8.1v4.2z" fill="#fff"/>
  <path d="M33.5 17.5c7.2 0 11.5 4.6 11.5 11.5 0 6.9-4.3 11.5-11.5 11.5-4.2 0-7.4-1.8-9.2-4.8l4.6-3.4c1.1 1.8 2.8 2.8 4.8 2.8 3.1 0 5.2-2.3 5.2-6.1 0-3.8-2.1-6.1-5.2-6.1-2 0-3.7 1-4.8 2.8l-4.6-3.4c1.8-3 5-4.8 9.2-4.8z" fill="url(#accent)"/>
</svg>
