<svg xmlns="http://www.w3.org/2000/svg" viewBox="0 0 64 64" fill="none" role="img" aria-label="Eugenio Ciullo">
  <defs>
    <linearGradient id="bg" x1="0" y1="0" x2="64" y2="64" gradientUnits="userSpaceOnUse">
      <stop stop-color="#050505"/>
      <stop offset="1" stop-color="#121212"/>
    </linearGradient>
    <linearGradient id="brain" x1="18" y1="10" x2="50" y2="54" gradientUnits="userSpaceOnUse">
      <stop stop-color="#c8ff5a" stop-opacity="0.95"/>
      <stop offset="1" stop-color="#a3ff12" stop-opacity="0.75"/>
    </linearGradient>
    <filter id="glow" x="-20%" y="-20%" width="140%" height="140%">
      <feGaussianBlur stdDeviation="1.2" result="blur"/>
      <feMerge>
        <feMergeNode in="blur"/>
        <feMergeNode in="SourceGraphic"/>
      </feMerge>
    </filter>
  </defs>
  <rect width="64" height="64" rx="16" fill="url(#bg)"/>
  <rect x="1" y="1" width="62" height="62" rx="15" stroke="#a3ff12" stroke-opacity="0.16"/>

  <g filter="url(#glow)" opacity="0.92">
    <path d="M32 11c-8.8 0-15.5 5.8-16.8 13.5-.5 3.2.3 6.2 2.2 8.4-2.8 2.4-4.2 5.8-3.6 9.6.8 5.2 5.8 9.2 12.4 10.1.8.1 1.6.1 2.4.1 1.2 0 2.3-.1 3.4-.4 6.6-1.3 11.2-5.8 11.8-11.1.4-3.8-1.2-7.2-4.2-9.5 1.5-2.1 2.1-4.7 1.6-7.6C38.3 16.4 35.8 11 32 11z" fill="url(#brain)" fill-opacity="0.22" stroke="url(#brain)" stroke-width="1.4"/>
    <path d="M32 16.5v30" stroke="#a3ff12" stroke-opacity="0.35" stroke-width="1.2" stroke-linecap="round"/>
    <path d="M22 22c2.8 2.2 4.6 5.4 4.8 8.8M42 22c-2.8 2.2-4.6 5.4-4.8 8.8M20 34c3.5 1.8 7.2 2.6 12 2.6s8.5-.8 12-2.6M24 42c2.2 1.6 4.8 2.4 8 2.4s5.8-.8 8-2.4" stroke="#a3ff12" stroke-opacity="0.42" stroke-width="1.1" stroke-linecap="round"/>
  </g>

  <path d="M24 18h12c3.4 0 5.6 1.8 5.6 4.7 0 2-1.1 3.4-2.9 4.1 2.2.6 3.6 2.3 3.6 4.7 0 3.1-2.4 5.3-6.1 5.3H24V18zm5.8 6.6h6.4c1.2 0 2-.6 2-1.5 0-.9-.8-1.5-2-1.5h-6.4v3zm0 8.4h7c1.4 0 2.3-.7 2.3-1.8 0-1.1-.9-1.8-2.3-1.8h-7v3.6z" fill="#fff"/>
</svg>
