<svg xmlns="http://www.w3.org/2000/svg" viewBox="0 0 400 88" fill="none" role="img" aria-label="Eugenio Ciullo Digital Marketer">
  <defs>
    <linearGradient id="mark-bg" x1="0" y1="0" x2="88" y2="88" gradientUnits="userSpaceOnUse">
      <stop stop-color="#050505"/>
      <stop offset="1" stop-color="#141414"/>
    </linearGradient>
    <linearGradient id="mark-accent" x1="38" y1="16" x2="58" y2="56" gradientUnits="userSpaceOnUse">
      <stop stop-color="#c8ff5a"/>
      <stop offset="1" stop-color="#a3ff12"/>
    </linearGradient>
  </defs>
  <rect x="0" y="8" width="72" height="72" rx="18" fill="url(#mark-bg)"/>
  <rect x="1" y="9" width="70" height="70" rx="17" stroke="#a3ff12" stroke-opacity="0.2"/>
  <path d="M14 26h16c4.3 0 7 2.3 7 5.9 0 2.5-1.3 4.2-3.6 5 2.7.7 4.5 2.7 4.5 5.6 0 4-3 7-7.6 7H14V26zm7.8 8.2h8.4c1.6 0 2.5-.8 2.5-2 0-1.2-.9-2-2.5-2h-8.4v4zm0 11h9.2c1.8 0 2.9-.9 2.9-2.3 0-1.4-1.1-2.3-2.9-2.3h-9.2v4.6z" fill="#fff"/>
  <path d="M37 26.5c8.1 0 13 5.2 13 13s-4.9 13-13 13c-4.7 0-8.3-2-10.4-5.4l5.2-3.8c1.2 2 3.1 3.1 5.4 3.1 3.5 0 5.8-2.6 5.8-6.9s-2.3-6.9-5.8-6.9c-2.3 0-4.2 1.1-5.4 3.1l-5.2-3.8c2.1-3.4 5.7-5.4 10.4-5.4z" fill="url(#mark-accent)"/>
  <text x="92" y="40" fill="#fff" font-family="system-ui, -apple-system, Segoe UI, sans-serif" font-size="28" font-weight="900" letter-spacing="-1">EUGENIO CIULLO</text>
  <text x="92" y="68" fill="#737373" font-family="system-ui, -apple-system, Segoe UI, sans-serif" font-size="12" font-weight="600" letter-spacing="4.5">DIGITAL MARKETER</text>
</svg>
